<?xml version="1.0" standalone="no"?>
<!DOCTYPE svg PUBLIC "-//W3C//DTD SVG 20010904//EN"
 "http://www.w3.org/TR/2001/REC-SVG-20010904/DTD/svg10.dtd">
<svg version="1.0" xmlns="http://www.w3.org/2000/svg"
 width="200.000000pt" height="200.000000pt" viewBox="0 0 200.000000 200.000000"
 preserveAspectRatio="xMidYMid meet">

<g transform="translate(0.000000,200.000000) scale(0.100000,-0.100000)"
fill="#000000" stroke="none">
<path d="M968 1444 l-3 -59 -92 -3 -93 -3 0 -152 0 -153 65 -64 65 -64 0 157
0 157 90 0 90 0 0 -93 0 -93 65 -64 65 -64 0 154 0 155 -124 124 -125 125 -3
-60z"/>
<path d="M1080 765 l0 -115 25 0 25 0 0 115 0 115 -25 0 -25 0 0 -115z"/>
<path d="M660 835 c0 -16 -6 -25 -15 -25 -8 0 -15 -9 -15 -20 0 -11 7 -23 15
-26 11 -5 15 -21 15 -60 0 -51 1 -54 25 -54 24 0 25 3 25 55 0 42 3 55 15 55
9 0 15 9 15 25 0 16 -6 25 -15 25 -9 0 -15 9 -15 25 0 20 -5 25 -25 25 -20 0
-25 -5 -25 -25z"/>
<path d="M1387 854 c-4 -4 -7 -16 -7 -26 0 -10 -4 -18 -10 -18 -5 0 -10 -11
-10 -25 0 -14 5 -25 10 -25 6 0 10 -25 10 -55 0 -54 0 -55 30 -55 30 0 30 1
30 54 0 39 4 55 15 60 19 7 20 46 1 46 -8 0 -16 10 -18 23 -3 22 -36 36 -51
21z"/>
<path d="M1510 835 c0 -16 -6 -25 -15 -25 -8 0 -15 -9 -15 -20 0 -11 7 -23 15
-26 11 -5 15 -21 15 -60 0 -51 1 -54 25 -54 24 0 25 3 25 55 0 42 3 55 15 55
9 0 15 9 15 25 0 16 -6 25 -15 25 -9 0 -15 9 -15 25 0 20 -5 25 -25 25 -20 0
-25 -5 -25 -25z"/>
<path d="M143 813 l-43 -4 0 -80 c0 -78 0 -79 25 -79 23 0 25 3 25 49 0 49 18
79 40 66 5 -3 10 -31 10 -61 0 -53 0 -54 30 -54 l30 0 0 60 c0 51 -4 65 -25
85 -13 14 -30 24 -37 23 -7 -1 -32 -3 -55 -5z"/>
<path d="M334 810 c-52 -21 -69 -88 -34 -133 36 -46 130 -48 130 -4 0 20 -4
22 -39 19 -21 -2 -42 1 -45 7 -5 7 9 11 43 11 50 0 51 1 51 29 0 54 -57 92
-106 71z m51 -50 c4 -6 -5 -10 -20 -10 -15 0 -24 4 -20 10 3 6 12 10 20 10 8
0 17 -4 20 -10z"/>
<path d="M923 813 l-43 -4 0 -110 c0 -109 0 -110 23 -107 16 2 23 11 25 30 3
24 6 27 32 21 24 -4 35 1 60 25 37 37 40 80 8 116 -26 28 -46 34 -105 29z m67
-63 c15 -28 -4 -62 -33 -58 -39 5 -31 78 9 78 7 0 18 -9 24 -20z"/>
<path d="M1211 809 c-57 -23 -70 -101 -25 -146 21 -21 31 -24 62 -19 20 3 47
6 60 6 21 0 22 4 22 80 l0 80 -34 0 c-19 0 -40 2 -48 4 -7 3 -24 0 -37 -5z
m63 -61 c14 -23 -3 -52 -32 -56 -16 -2 -23 3 -28 22 -12 48 35 74 60 34z"/>
<path d="M1661 809 c-13 -5 -30 -17 -37 -27 -16 -20 -18 -76 -4 -101 14 -27
64 -44 105 -37 28 6 35 12 35 29 0 20 -4 22 -39 19 -21 -2 -42 1 -45 7 -5 7 9
11 43 11 44 0 51 3 51 20 0 32 -21 67 -47 79 -28 13 -30 13 -62 0z m54 -49 c4
-6 -5 -10 -20 -10 -15 0 -24 4 -20 10 3 6 12 10 20 10 8 0 17 -4 20 -10z"/>
<path d="M1843 813 l-43 -4 0 -80 c0 -77 1 -79 24 -79 23 0 25 4 28 53 3 45 6
52 26 55 17 3 22 10 22 33 0 16 -3 28 -7 27 -5 -1 -27 -3 -50 -5z"/>
<path d="M479 774 c26 -43 26 -52 1 -84 -11 -14 -20 -28 -20 -32 0 -16 53 -7
66 10 13 16 15 16 25 0 6 -11 22 -18 40 -18 l29 0 -26 41 -25 41 25 39 26 39
-29 0 c-18 0 -34 -7 -40 -17 -10 -17 -12 -17 -25 0 -7 9 -26 17 -41 17 l-27 0
21 -36z"/>
<path d="M760 745 c0 -23 4 -25 45 -25 41 0 45 2 45 25 0 23 -4 25 -45 25 -41
0 -45 -2 -45 -25z"/>
<path d="M629 564 c-9 -9 -14 -25 -11 -40 5 -28 22 -33 23 -6 0 9 2 27 5 40 5
26 3 27 -17 6z"/>
<path d="M283 554 c-3 -9 0 -20 8 -25 10 -6 10 -9 2 -9 -7 0 -13 -4 -13 -10 0
-5 7 -10 15 -10 21 0 31 30 14 41 -10 6 -10 9 -1 9 6 0 12 5 12 10 0 16 -30
11 -37 -6z"/>
<path d="M348 558 c-6 -17 3 -58 12 -58 14 0 18 50 5 60 -9 8 -14 7 -17 -2z"/>
<path d="M537 563 c-10 -10 -8 -63 2 -63 11 0 20 45 11 60 -3 5 -9 7 -13 3z"/>
<path d="M815 559 c-3 -8 -2 -26 3 -39 l9 -24 5 26 c6 32 -7 61 -17 37z"/>
<path d="M1191 551 c-28 -21 -23 -51 9 -51 16 0 20 6 20 35 0 19 -1 35 -2 35
-2 0 -14 -9 -27 -19z m14 -21 c3 -5 1 -10 -4 -10 -6 0 -11 5 -11 10 0 6 2 10
4 10 3 0 8 -4 11 -10z"/>
<path d="M1578 555 c-8 -8 3 -55 13 -55 5 0 9 9 9 20 0 11 0 23 1 27 1 10 -16
15 -23 8z"/>
<path d="M402 528 c2 -15 11 -24 26 -26 18 -3 22 1 22 22 0 21 -5 26 -26 26
-21 0 -25 -4 -22 -22z m28 2 c0 -5 -4 -10 -10 -10 -5 0 -10 5 -10 10 0 6 5 10
10 10 6 0 10 -4 10 -10z"/>
<path d="M470 525 c0 -14 5 -25 10 -25 6 0 10 9 10 19 0 11 6 22 13 24 6 3 2
6 -10 6 -18 1 -23 -5 -23 -24z"/>
<path d="M674 535 c-8 -20 4 -35 27 -35 14 0 19 7 19 25 0 18 -5 25 -20 25
-11 0 -23 -7 -26 -15z m31 -5 c3 -5 1 -10 -4 -10 -6 0 -11 5 -11 10 0 6 2 10
4 10 3 0 8 -4 11 -10z"/>
<path d="M750 525 c0 -15 6 -25 14 -25 19 0 33 23 18 28 -7 2 -10 8 -6 13 3 5
-2 9 -10 9 -10 0 -16 -9 -16 -25z"/>
<path d="M864 535 c-8 -20 4 -35 27 -35 14 0 19 7 19 25 0 18 -5 25 -20 25
-11 0 -23 -7 -26 -15z"/>
<path d="M930 525 c0 -14 5 -25 10 -25 6 0 10 9 10 19 0 11 6 22 13 24 6 3 2
6 -10 6 -18 1 -23 -5 -23 -24z"/>
<path d="M1024 535 c-8 -20 4 -35 27 -35 14 0 19 7 19 25 0 18 -5 25 -20 25
-11 0 -23 -7 -26 -15z m31 -5 c3 -5 1 -10 -4 -10 -6 0 -11 5 -11 10 0 6 2 10
4 10 3 0 8 -4 11 -10z"/>
<path d="M1100 526 c0 -32 8 -33 20 -3 l9 22 0 -22 c1 -13 6 -23 12 -23 21 0
4 45 -18 48 -19 3 -23 -1 -23 -22z"/>
<path d="M1289 548 c-9 -27 -3 -48 13 -48 13 0 17 7 16 25 -1 14 -8 25 -15 25
-7 0 -13 -1 -14 -2z"/>
<path d="M1351 523 l1 -28 8 25 8 25 8 -25 8 -25 7 25 6 25 11 -25 11 -25 0
28 c1 24 -2 27 -34 27 -32 0 -35 -3 -34 -27z"/>
<path d="M1448 538 c-9 -23 3 -38 28 -38 19 0 24 5 24 25 0 20 -5 25 -24 25
-13 0 -26 -6 -28 -12z m32 -8 c0 -5 -4 -10 -10 -10 -5 0 -10 5 -10 10 0 6 5
10 10 10 6 0 10 -4 10 -10z"/>
<path d="M1520 525 c0 -14 4 -25 9 -25 5 0 11 11 13 25 4 17 1 25 -8 25 -8 0
-14 -11 -14 -25z"/>
<path d="M1632 528 c4 -27 33 -36 42 -13 8 22 -1 35 -25 35 -15 0 -20 -6 -17
-22z"/>
<path d="M1700 525 c0 -14 4 -25 9 -25 5 0 11 11 13 25 4 17 1 25 -8 25 -8 0
-14 -11 -14 -25z"/>
</g>
</svg>
